<svg xmlns="http://www.w3.org/2000/svg" width="1200" height="630" viewBox="0 0 1200 630">
  <rect width="1200" height="630" fill="#F2F6F7"/>
  <g opacity=".42" stroke="#C7D2D7"><path d="M0 70h1200M0 140h1200M0 210h1200M0 280h1200M0 350h1200M0 420h1200M0 490h1200M0 560h1200"/><path d="M80 0v630M160 0v630M240 0v630M320 0v630M400 0v630M480 0v630M560 0v630M640 0v630M720 0v630M800 0v630M880 0v630M960 0v630M1040 0v630M1120 0v630"/></g>
  <rect x="62" y="58" width="72" height="72" rx="16" fill="#162A3A"/>
  <text x="98" y="103" text-anchor="middle" fill="#fff" font-family="Arial, sans-serif" font-size="25" font-weight="700">SC</text>
  <text x="62" y="208" fill="#2C5F86" font-family="monospace" font-size="22" font-weight="700" letter-spacing="2">BACKEND ENGINEER · RELIABLE AI &amp; DATA SYSTEMS</text>
  <text x="62" y="294" fill="#162A3A" font-family="Arial, sans-serif" font-size="66" font-weight="700">Reliable backend systems</text>
  <text x="62" y="356" fill="#52636F" font-family="Arial, sans-serif" font-size="29">Salih Camcı · MSc Data Science · University of Basel</text>
  <g transform="translate(678 404)">
    <rect x="0" y="0" width="454" height="152" rx="22" fill="#162A3A"/>
    <line x1="44" y1="82" x2="410" y2="82" stroke="#40566A" stroke-width="1"/>
    <line x1="230" y1="64" x2="230" y2="100" stroke="#E4C98B" stroke-width="2" stroke-dasharray="5 5"/>
    <line x1="139" y1="82" x2="378" y2="82" stroke="#9EBED6" stroke-width="5" stroke-linecap="round"/>
    <circle cx="258" cy="82" r="7" fill="#B9AEE1"/>
    <text x="34" y="36" fill="#fff" font-family="monospace" font-size="15">FINANCEIQ / PIT-CORRECTED</text>
    <text x="34" y="128" fill="#E4C98B" font-family="monospace" font-size="18" font-weight="700">IC +0.031 · p = 0.63</text>
  </g>
</svg>
